<mxfile host="app.diagrams.net" modified="2023-09-23T13:20:46.602Z" agent="Mozilla/5.0 (Windows NT 10.0; Win64; x64) AppleWebKit/537.36 (KHTML, like Gecko) Chrome/117.0.0.0 Safari/537.36" version="21.8.1" etag="k0gOSJwrG8C2M5wDEB9V" type="github">
  <diagram name="PÃ¡gina-1" id="9fUCpT1h_kfJOcJ_H_6Y">
    <mxGraphModel>
      <root>
        <mxCell id="0" />
        <mxCell id="1" parent="0" />
      </root>
    </mxGraphModel>
  </diagram>
</mxfile>
